<svg width="34" height="34" viewBox="0 0 34 34" fill="none" xmlns="http://www.w3.org/2000/svg">
<path d="M28.3333 16.6458C28.1033 16.6469 27.8793 16.5722 27.6958 16.4333L17 8.41501L6.30416 16.4333C6.07873 16.6024 5.79536 16.675 5.5164 16.6352C5.23744 16.5953 4.98574 16.4463 4.81666 16.2208C4.64759 15.9954 4.57499 15.712 4.61484 15.4331C4.65469 15.1541 4.80373 14.9024 5.02916 14.7333L16.3625 6.23334C16.5464 6.09541 16.7701 6.02084 17 6.02084C17.2299 6.02084 17.4536 6.09541 17.6375 6.23334L28.9708 14.7333C29.1766 14.9004 29.3124 15.1384 29.3517 15.4005C29.391 15.6626 29.331 15.9299 29.1833 16.15C29.093 16.2959 28.9683 16.4174 28.8201 16.5039C28.6719 16.5903 28.5048 16.6391 28.3333 16.6458Z" fill="black"/>
<path d="M25.5 27.9792H8.5C8.21935 27.9755 7.95122 27.8624 7.75276 27.6639C7.55429 27.4655 7.44117 27.1973 7.4375 26.9167V13.4583C7.4375 13.1766 7.54944 12.9063 7.7487 12.707C7.94796 12.5078 8.21821 12.3958 8.5 12.3958C8.78179 12.3958 9.05204 12.5078 9.2513 12.707C9.45056 12.9063 9.5625 13.1766 9.5625 13.4583V25.8542H24.4375V13.4583C24.4375 13.1766 24.5494 12.9063 24.7487 12.707C24.948 12.5078 25.2182 12.3958 25.5 12.3958C25.7818 12.3958 26.052 12.5078 26.2513 12.707C26.4506 12.9063 26.5625 13.1766 26.5625 13.4583V26.9167C26.5588 27.1973 26.4457 27.4655 26.2472 27.6639C26.0488 27.8624 25.7807 27.9755 25.5 27.9792Z" fill="black"/>
<path d="M19.8333 27.9792C19.5527 27.9755 19.2845 27.8624 19.0861 27.6639C18.8876 27.4654 18.7745 27.1973 18.7708 26.9167V18.0625H15.2292V26.9167C15.2292 27.1985 15.1172 27.4687 14.918 27.668C14.7187 27.8672 14.4484 27.9792 14.1667 27.9792C13.8849 27.9792 13.6146 27.8672 13.4154 27.668C13.2161 27.4687 13.1042 27.1985 13.1042 26.9167V17C13.1078 16.7193 13.2209 16.4512 13.4194 16.2528C13.6179 16.0543 13.886 15.9412 14.1667 15.9375H19.8333C20.114 15.9412 20.3821 16.0543 20.5806 16.2528C20.779 16.4512 20.8922 16.7193 20.8958 17V26.9167C20.8922 27.1973 20.779 27.4654 20.5806 27.6639C20.3821 27.8624 20.114 27.9755 19.8333 27.9792Z" fill="black"/>
</svg>
