<svg width="21" height="21" viewBox="0 0 21 21" fill="none" xmlns="http://www.w3.org/2000/svg">
<path d="M17.25 8.25C17.25 6.45979 16.5388 4.7429 15.273 3.47703C14.0071 2.21116 12.2902 1.5 10.5 1.5C8.70979 1.5 6.9929 2.21116 5.72703 3.47703C4.46116 4.7429 3.75 6.45979 3.75 8.25C3.75 11.019 5.9655 14.628 10.5 18.951C15.0345 14.628 17.25 11.019 17.25 8.25ZM10.5 21C4.9995 16.0005 2.25 11.7495 2.25 8.25C2.25 6.06196 3.11919 3.96354 4.66637 2.41637C6.21354 0.869194 8.31196 0 10.5 0C12.688 0 14.7865 0.869194 16.3336 2.41637C17.8808 3.96354 18.75 6.06196 18.75 8.25C18.75 11.7495 16.0005 16.0005 10.5 21Z" fill="#979797"/>
<path d="M10.5 9C10.8978 9 11.2794 8.84196 11.5607 8.56066C11.842 8.27936 12 7.89782 12 7.5C12 7.10218 11.842 6.72064 11.5607 6.43934C11.2794 6.15804 10.8978 6 10.5 6C10.1022 6 9.72064 6.15804 9.43934 6.43934C9.15804 6.72064 9 7.10218 9 7.5C9 7.89782 9.15804 8.27936 9.43934 8.56066C9.72064 8.84196 10.1022 9 10.5 9ZM10.5 10.5C9.70435 10.5 8.94129 10.1839 8.37868 9.62132C7.81607 9.05871 7.5 8.29565 7.5 7.5C7.5 6.70435 7.81607 5.94129 8.37868 5.37868C8.94129 4.81607 9.70435 4.5 10.5 4.5C11.2956 4.5 12.0587 4.81607 12.6213 5.37868C13.1839 5.94129 13.5 6.70435 13.5 7.5C13.5 8.29565 13.1839 9.05871 12.6213 9.62132C12.0587 10.1839 11.2956 10.5 10.5 10.5ZM18.6 15L21 21H14.25V19.5H6.75V21H0L2.4 15H18.6ZM16.9845 15H4.0155L2.2155 19.5H18.7845L16.9845 15Z" fill="#979797"/>
</svg>
