<svg width="28" height="28" viewBox="0 0 28 28" fill="none" xmlns="http://www.w3.org/2000/svg">
<path d="M14 4.66668C12.7623 4.66668 11.5753 5.15834 10.7002 6.03351C9.825 6.90868 9.33333 8.09567 9.33333 9.33334C9.33333 10.571 9.825 11.758 10.7002 12.6332C11.5753 13.5083 12.7623 14 14 14C15.2377 14 16.4247 13.5083 17.2998 12.6332C18.175 11.758 18.6667 10.571 18.6667 9.33334C18.6667 8.09567 18.175 6.90868 17.2998 6.03351C16.4247 5.15834 15.2377 4.66668 14 4.66668ZM7 9.33334C7 7.47683 7.7375 5.69635 9.05025 4.3836C10.363 3.07084 12.1435 2.33334 14 2.33334C15.8565 2.33334 17.637 3.07084 18.9497 4.3836C20.2625 5.69635 21 7.47683 21 9.33334C21 11.1899 20.2625 12.9703 18.9497 14.2831C17.637 15.5958 15.8565 16.3333 14 16.3333C12.1435 16.3333 10.363 15.5958 9.05025 14.2831C7.7375 12.9703 7 11.1899 7 9.33334ZM9.33333 21C8.40508 21 7.51484 21.3688 6.85846 22.0251C6.20208 22.6815 5.83333 23.5718 5.83333 24.5C5.83333 24.8094 5.71042 25.1062 5.49162 25.325C5.27283 25.5438 4.97609 25.6667 4.66667 25.6667C4.35725 25.6667 4.0605 25.5438 3.84171 25.325C3.62292 25.1062 3.5 24.8094 3.5 24.5C3.5 22.9529 4.11458 21.4692 5.20854 20.3752C6.30251 19.2813 7.78624 18.6667 9.33333 18.6667H18.6667C20.2138 18.6667 21.6975 19.2813 22.7915 20.3752C23.8854 21.4692 24.5 22.9529 24.5 24.5C24.5 24.8094 24.3771 25.1062 24.1583 25.325C23.9395 25.5438 23.6428 25.6667 23.3333 25.6667C23.0239 25.6667 22.7272 25.5438 22.5084 25.325C22.2896 25.1062 22.1667 24.8094 22.1667 24.5C22.1667 23.5718 21.7979 22.6815 21.1415 22.0251C20.4852 21.3688 19.5949 21 18.6667 21H9.33333Z" fill="black"/>
</svg>
