<svg width="24" height="24" viewBox="0 0 24 24" fill="none" xmlns="http://www.w3.org/2000/svg">
<path d="M22.5 10.9765H22.5V10.9849V22.0798C22.5 22.1711 22.4628 22.2716 22.3753 22.3556C22.2858 22.4415 22.1518 22.5 22 22.5H17C16.8481 22.5 16.7141 22.4415 16.6246 22.3556C16.5372 22.2716 16.5 22.1711 16.5 22.0798V17.2794C16.5 16.6068 16.2211 15.9747 15.7459 15.5185C15.2728 15.0643 14.6438 14.8193 14 14.8193H9.99999C9.35622 14.8193 8.72713 15.0643 8.25404 15.5185C7.77887 15.9747 7.49999 16.6068 7.49999 17.2794V22.0798C7.49999 22.1711 7.4628 22.2716 7.37536 22.3556C7.28584 22.4415 7.15187 22.5 6.99999 22.5H2C1.84812 22.5 1.71415 22.4415 1.62463 22.3556C1.53719 22.2716 1.5 22.1711 1.5 22.0798V10.9849V10.9847C1.49999 10.9357 1.51047 10.8855 1.53283 10.8366C1.55529 10.7874 1.59022 10.7387 1.63899 10.6957L1.64617 10.6893L1.65328 10.6829L11.6533 1.62451L11.6621 1.61652C11.7505 1.54574 11.8715 1.5 12.0056 1.5C12.1391 1.5 12.2597 1.54536 12.348 1.61564C12.3546 1.62161 12.3611 1.62754 12.3678 1.6334L22.3579 10.6829L22.3579 10.6829L22.3637 10.6881C22.4118 10.7312 22.4462 10.7799 22.4682 10.8289C22.4901 10.8777 22.5003 10.9277 22.5 10.9765Z" stroke="black" stroke-width="3"/>
</svg>
