<svg width="32" height="32" viewBox="0 0 32 32" fill="none" xmlns="http://www.w3.org/2000/svg">
<path d="M25.3333 14.6667H10.44L16.9467 8.16C17.4667 7.64 17.4667 6.78666 16.9467 6.26666C16.8233 6.14306 16.6768 6.045 16.5155 5.97809C16.3542 5.91118 16.1813 5.87674 16.0067 5.87674C15.832 5.87674 15.6591 5.91118 15.4978 5.97809C15.3365 6.045 15.19 6.14306 15.0667 6.26666L6.28 15.0533C6.1564 15.1767 6.05833 15.3232 5.99142 15.4845C5.92452 15.6458 5.89008 15.8187 5.89008 15.9933C5.89008 16.168 5.92452 16.3409 5.99142 16.5022C6.05833 16.6635 6.1564 16.81 6.28 16.9333L15.0667 25.72C15.1901 25.8434 15.3367 25.9414 15.4979 26.0082C15.6592 26.075 15.8321 26.1094 16.0067 26.1094C16.1812 26.1094 16.3541 26.075 16.5154 26.0082C16.6767 25.9414 16.8232 25.8434 16.9467 25.72C17.0701 25.5966 17.168 25.45 17.2348 25.2887C17.3016 25.1274 17.336 24.9546 17.336 24.78C17.336 24.6054 17.3016 24.4326 17.2348 24.2713C17.168 24.11 17.0701 23.9634 16.9467 23.84L10.44 17.3333H25.3333C26.0667 17.3333 26.6667 16.7333 26.6667 16C26.6667 15.2667 26.0667 14.6667 25.3333 14.6667Z" fill="black"/>
</svg>
